<svg xmlns="http://www.w3.org/2000/svg" viewBox="0 0 550 400">
    <defs>
        <linearGradient id="a" x1="360.72" x2="360.72" y1="240.55" y2="277.75"
            gradientUnits="userSpaceOnUse">
            <stop offset="0" stop-color="#aeacac" class="stopColoraeacac svgShape" />
            <stop offset=".07" stop-color="#b9b8b8" class="stopColorb9b8b8 svgShape" />
            <stop offset=".26" stop-color="#d6d5d5" class="stopColord6d5d5 svgShape" />
            <stop offset=".42" stop-color="#e8e8e8" class="stopColore8e8e8 svgShape" />
            <stop offset=".54" stop-color="#eeeeee" class="stopColoreee svgShape" />
            <stop offset=".71" stop-color="#f6f6f6" class="stopColorf6f6f6 svgShape" />
            <stop offset="1" stop-color="#ffffff" class="stopColorfff svgShape" />
        </linearGradient>
    </defs>
    <g data-name="1" fill="#000000" class="color000 svgShape">
        <path
            d="M466.05 293.75H255.38a10.05 10.05 0 0 1-10-10 10.05 10.05 0 0 1 10-10h210.67a10.05 10.05 0 0 1 10 10 10.05 10.05 0 0 1-10 10Z"
            style="mix-blend-mode:multiply" fill="gray" opacity=".2" class="colorgray svgShape" />
        <path fill="url(#a)"
            d="M406.26 277.75h-91.09c17.58-12.09 21.65-9.77 22.77-37.2h45.55c1.13 27.45 5.19 25.11 22.77 37.2Z" />
        <path fill="#d8dee2"
            d="M414.52 280.31a2.56 2.56 0 0 1-2.56 2.56H309.48a2.57 2.57 0 0 1-2.57-2.56 2.54 2.54 0 0 1 .76-1.81 2.51 2.51 0 0 1 1.81-.75H412a2.56 2.56 0 0 1 2.56 2.56Z"
            class="colord8dee2 svgShape" />
        <path fill="#879aa6"
            d="M251.51 88.64h224.56v136.69H251.51a6.15 6.15 0 0 1-6.15-6.15V94.79a6.15 6.15 0 0 1 6.15-6.15Z"
            class="color879aa6 svgShape" />
        <path fill="#71808a" d="M251.06 94.34h219.32v125.3H251.06z"
            transform="rotate(180 360.715 156.985)" class="color71808a svgShape" />
        <path fill="#ffffff" d="M253.33 96.61H468.1v120.74H253.33z"
            transform="rotate(180 360.715 156.985)" class="colorfff svgShape" />
        <path fill="#ffffff"
            d="M245.36 225.33h230.71v10.91a8.14 8.14 0 0 1-8.14 8.14H253.5a8.14 8.14 0 0 1-8.14-8.14v-10.91Z"
            class="colorfff svgShape" />
        <circle cx="360.72" cy="234.86" r="5.69" fill="#8a9da9" class="color8a9da9 svgShape" />
        <path fill="#ffffff" d="M253.33 96.61H468.1v120.74H253.33z"
            transform="rotate(180 360.715 156.985)" class="colorfff svgShape" />
        <path fill="#e3e9ed" d="M259.03 137.55h203.38v74.12H259.03z"
            transform="rotate(180 360.715 174.605)" class="colore3e9ed svgShape" />
        <path fill="#ca9fe8" d="M259.02 102.31h203.39v29.26H259.02z" class="colorca9fe8 svgShape" />
        <path fill="#a862d9" d="M366.41 145.63h37.47v37.47h-37.47z" class="colora862d9 svgShape" />
        <path fill="#ffffff"
            d="M396 171.05v-12.16h-21.67v13.74H396Zm-21.39-11.92h21.15v11.67h-21.19Zm0 0h21.15v11.67h-21.19Zm21.15 13.26h-21.19v-1.34h21.15Z"
            opacity=".44" class="colorfff svgShape" />
        <path fill="#ffffff"
            d="M397.54 154.57h-17.83a1.06 1.06 0 0 1-.9-.6l-.06-.12a1.06 1.06 0 0 0-.91-.6h-5.09a1.25 1.25 0 0 0-1.09 1.35v19.54a1.24 1.24 0 0 0 1.09 1.34h24.79a1.24 1.24 0 0 0 1.09-1.34v-18.23a1.24 1.24 0 0 0-1.09-1.34Zm.85 19.57a1 1 0 0 1-.85 1.1h-24.79a1 1 0 0 1-.85-1.1v-17.87h26.49Z"
            class="colorfff svgShape" />
        <path fill="#ffffff"
            d="M375.77 171.21v1.01l.88-.5-.88-.51zM379.08 172.09h12.15a.38.38 0 0 0 0-.75h-12.15a.38.38 0 0 0 0 .75ZM377.23 171.21h.36v1.02h-.36zM377.76 171.21h.36v1.02h-.36zM392.19 172h.36v.23h-.36zM392.68 171.8h.36v.42h-.36zM393.18 171.6h.36v.62h-.36zM393.67 171.4h.36v.82h-.36zM394.16 171.21h.36v1.02h-.36zM385.15 161.41a3.56 3.56 0 1 0 3.55 3.59 3.57 3.57 0 0 0-3.55-3.59Zm0 6.87a3.32 3.32 0 1 1 3.31-3.31 3.32 3.32 0 0 1-3.31 3.31Z"
            class="colorfff svgShape" />
        <path fill="#ffffff"
            d="m385.69 164.09-1.15-.66a.25.25 0 0 0-.37.21v2.65a.25.25 0 0 0 .37.21l1.15-.66 1.14-.66a.24.24 0 0 0 0-.42Z"
            class="colorfff svgShape" />
        <path fill="#a862d9" d="M415.27 145.63h37.47v37.47h-37.47z" class="colora862d9 svgShape" />
        <path fill="#ffffff"
            d="M438.65 168.26v1.11a.7.7 0 0 1-.68.71h-14.35a.37.37 0 0 0-.34.21l-.7 1.49v-1.31a.38.38 0 0 0-.37-.39h-.13a.69.69 0 0 1-.68-.71v-8.56a.69.69 0 0 1 .68-.71h2.35v-.77h-2.35a1.45 1.45 0 0 0-1.43 1.48v8.56a1.47 1.47 0 0 0 1.18 1.46v2.61a.39.39 0 0 0 .29.38h.09a.37.37 0 0 0 .33-.21l1.31-2.77H438a1.45 1.45 0 0 0 1.42-1.48v-1.11Z"
            class="colorfff svgShape" />
        <path fill="#ffffff"
            d="M445.82 155.14H426a1.31 1.31 0 0 0-1.3 1.31v10.27A1.31 1.31 0 0 0 426 168h17.4l1.71 3.47a.29.29 0 0 0 .55-.13V168h.16a1.31 1.31 0 0 0 1.31-1.31v-10.24a1.31 1.31 0 0 0-1.31-1.31Z"
            opacity=".44" class="colorfff svgShape" />
        <path fill="#ffffff"
            d="M445.36 171.89a.52.52 0 0 1-.46-.29l-1.65-3.34H426a1.54 1.54 0 0 1-1.54-1.54v-10.27a1.54 1.54 0 0 1 1.54-1.54h19.85a1.54 1.54 0 0 1 1.54 1.54v10.27a1.55 1.55 0 0 1-1.47 1.54v3.11a.51.51 0 0 1-.4.51ZM426 155.37a1.07 1.07 0 0 0-1.07 1.08v10.27a1.07 1.07 0 0 0 1.07 1.07h17.57l1.78 3.6h.06v-3.58h.4a1.07 1.07 0 0 0 1.07-1.07v-10.29a1.07 1.07 0 0 0-1.07-1.08Z"
            class="colorfff svgShape" />
        <path fill="#ffffff"
            d="M438.86 161.58a1.63 1.63 0 1 0 3.25 0 1.63 1.63 0 0 0-3.25 0ZM434.27 161.58a1.63 1.63 0 1 0 1.63-1.58 1.63 1.63 0 0 0-1.63 1.58ZM429.68 161.58a1.63 1.63 0 1 0 1.62-1.58 1.63 1.63 0 0 0-1.62 1.58Z"
            class="colorfff svgShape" />
        <path fill="#a862d9" d="M268.69 145.63h37.47v37.47h-37.47z" class="colora862d9 svgShape" />
        <path fill="#ffffff"
            d="M297.13 153.43a1.39 1.39 0 1 0-1.06.49 1.37 1.37 0 0 0 .61-.14A11.88 11.88 0 0 1 280 170.13a1.35 1.35 0 0 0 .33-.9 1.4 1.4 0 1 0-1.76 1.35v5.33h-2a1 1 0 0 0-1 1 1 1 0 0 0 1 1h4.67a1 1 0 0 0 1-1 1 1 0 0 0-1-1h-2v-5.34l.21-.07a12.45 12.45 0 0 0 17.59-17.07Z"
            class="colorfff svgShape" />
        <path fill="#ffffff"
            d="M286.56 170.29a9.86 9.86 0 0 1-6.34-2.71 10 10 0 0 1 6.57-17.18 10 10 0 1 1-.23 19.89Zm1-19.43h-.74a9.5 9.5 0 1 0 7.16 16l.17.16-.17-.16a9.5 9.5 0 0 0-6.42-16Z"
            class="colorfff svgShape" />
        <g opacity=".3" fill="#000000" class="color000 svgShape">
            <path fill="#ffffff"
                d="M294.13 167a9.73 9.73 0 1 1-.38-13.76 9.73 9.73 0 0 1 .38 13.76Z"
                class="colorfff svgShape" />
            <path fill="#ffffff"
                d="M286.56 170.29a9.86 9.86 0 0 1-6.34-2.71 10 10 0 0 1 6.57-17.18 10 10 0 1 1-.23 19.89Zm1-19.43h-.74a9.5 9.5 0 1 0 7.16 16l.17.16-.17-.16a9.5 9.5 0 0 0-6.42-16Z"
                class="colorfff svgShape" />
        </g>
        <path fill="#ffffff"
            d="M292.57 165.5a7.56 7.56 0 0 0-.29-10.59l-.07-.07a8.17 8.17 0 0 0-1.11-.85 3.79 3.79 0 0 0-.34-.2 3.07 3.07 0 0 0-.31-.17 6.24 6.24 0 0 0-.84-.36l-.48-.16h-.22a7.42 7.42 0 0 0-.94-.18 6.66 6.66 0 0 0-1.18-.05 2.6 2.6 0 0 0-.4 0 7.49 7.49 0 0 0-4.76 2.29 7.54 7.54 0 0 0 .3 10.58 7.59 7.59 0 0 0 4.78 2h.99a7.49 7.49 0 0 0 4.81-2.29Zm-5.13 2.25h-3.79l-.08-.05h-.09l-.08-.05h-.08l-.09-.05-.08-.05h-.08l-.08-.05h-.08l-.08-.06-.08-.05-.08-.06-.07-.06a5 5 0 0 0 3.91-.71 9.3 9.3 0 0 1 1.09 2.19h-.16Zm-6.09-2.68a.27.27 0 0 0-.07-.08v-.08l-.06-.07-.06-.08-.06-.08a.56.56 0 0 1-.05-.08l-.06-.07-.05-.09-.05-.07-.06-.09v-.08l-.06-.08v-.08l-.05-.09a.2.2 0 0 1 0-.08.41.41 0 0 1-.05-.09V163.44a.3.3 0 0 0 0-.08.36.36 0 0 0 0-.09V162.46a.29.29 0 0 1 0-.09v-.09a.3.3 0 0 1 0-.1V161.43a.28.28 0 0 0 0-.09v-.1a.28.28 0 0 1 0-.09.31.31 0 0 1 0-.1.28.28 0 0 1 0-.09v-.19a.38.38 0 0 1 0-.1v-.19a.38.38 0 0 1 0-.1v-.15a9.21 9.21 0 0 1 2.24 1 5.07 5.07 0 0 0-.49 3.95Zm5-12.09a9.37 9.37 0 0 0 1.1 2.26l-.54.33a13.61 13.61 0 0 0-2.55 2.12l-2.62-2.48a7.36 7.36 0 0 1 4.6-2.21Zm.19 0H289.78a.2.2 0 0 1 .08 0h.28a.2.2 0 0 0 .08 0l.09.05h.08l.09.05h.08l.09.05h.08l.09.06h.08l.09.06h.07l.09.06.07.05.1.06h.06l.09.07a.18.18 0 0 1 .07.05 5.11 5.11 0 0 0-4 .74 9 9 0 0 1-1.09-2.21Zm6.25 2.68a.27.27 0 0 0 .07.08.18.18 0 0 0 0 .07l.07.09v.07l.06.08.05.08.06.08.05.08.06.08v.08l.06.09a.25.25 0 0 1 0 .07l.06.09v.25l.05.09a.59.59 0 0 0 0 .08 1 1 0 0 1 0 .1.2.2 0 0 1 0 .08.36.36 0 0 1 0 .09v.62a1 1 0 0 0 0 .1V158.57a.36.36 0 0 0 0 .1v.09a.3.3 0 0 1 0 .1V159.82a.28.28 0 0 0 0 .09v.19a.38.38 0 0 1 0 .1v.36a9.28 9.28 0 0 1-2.27-1 5.13 5.13 0 0 0 .52-4Zm-5.63 9.34-.61.36a13.63 13.63 0 0 0-2-2.32l2.48-2.62 2.62 2.48a13.58 13.58 0 0 1-2.49 2.1Zm5-10c.85.86.81 2.53-.12 4.48a12.71 12.71 0 0 1-1.71-1.21c-.23-.19-.46-.4-.68-.61Zm-4.68.33a13.5 13.5 0 0 0 1.32 1.68l.65.66-2.43 2.57-2.62-2.48a13.7 13.7 0 0 1 2.53-2.1 6.16 6.16 0 0 1 .59-.31Zm.11-.06c1.9-1 3.57-1.17 4.48-.36l-2.53 2.66c-.22-.21-.44-.43-.64-.65a14.13 14.13 0 0 1-1.27-1.63Zm-.66 5.06-2.44 2.67a14.13 14.13 0 0 0-2.42-1.83c.1-.2.2-.41.32-.62a14 14 0 0 1 2-2.63Zm-2.57 2.72-2.48 2.62c-.84-.86-.8-2.51.09-4.43a13.8 13.8 0 0 1 2.43 1.83Zm2 2.37c-1.87 1-3.52 1.13-4.42.34l2.48-2.62a14.14 14.14 0 0 1 2.02 2.3Zm.71-5.09 2.44-2.57c.23.21.46.42.69.61a13.92 13.92 0 0 0 1.75 1.23q-.13.28-.3.57a13.56 13.56 0 0 1-2 2.64Zm-2.89-2.56a13.6 13.6 0 0 0-2 2.66c-.12.21-.23.42-.32.62a10.11 10.11 0 0 0-2.3-1 7.36 7.36 0 0 1 2-4.78Zm3 7.34a13.87 13.87 0 0 0 2.55-2.12l2.62 2.48a7.37 7.37 0 0 1-4.67 2.24 9 9 0 0 0-1.11-2.24Zm2.64-2.21a13.9 13.9 0 0 0 2-2.67c.11-.19.21-.38.3-.56a9.4 9.4 0 0 0 2.32 1 7.4 7.4 0 0 1-2 4.73Z"
            class="colorfff svgShape" />
        <path fill="#a862d9" d="M317.55 145.63h37.47v37.47h-37.47z" class="colora862d9 svgShape" />
        <path fill="#ffffff"
            d="M345.85 177.91H329a3.27 3.27 0 0 1-3.3-3.23v-20.21h.48v.13a3.16 3.16 0 0 0 3.16 3h17.61v19.24a1.05 1.05 0 0 1-1.1 1.07Zm-19.71-21.63v18.4a2.79 2.79 0 0 0 2.82 2.76h16.89a.59.59 0 0 0 .59-.57v-18.76H329.3a3.65 3.65 0 0 1-3.16-1.83Zm0 0v18.4a2.79 2.79 0 0 0 2.82 2.76h16.89a.59.59 0 0 0 .59-.57v-18.76H329.3a3.65 3.65 0 0 1-3.16-1.83Z"
            opacity=".44" class="colorfff svgShape" />
        <path fill="#ffffff" d="M346.91 151.87v5.19h-17.58a2.6 2.6 0 1 1 0-5.19Z"
            class="colorfff svgShape" />
        <path fill="#ffffff"
            d="M346.91 158.11H329.3a3.64 3.64 0 0 1-3.64-3.48v-.16a3.65 3.65 0 0 1 3.64-3.65h17.61v1.29H329.3a2.34 2.34 0 0 0-1.66.69 2.35 2.35 0 0 0 1.66 4h17.61Zm-17.61-6.81a3.18 3.18 0 0 0-3.16 3.17v.13a3.16 3.16 0 0 0 3.16 3h17.14v-.33H329.3a2.83 2.83 0 0 1-2.83-2.83 2.77 2.77 0 0 1 .83-2 2.82 2.82 0 0 1 2-.84h17.14v-.33Z"
            class="colorfff svgShape" />
        <path fill="#f9757d"
            d="M300.09 203.35h-25.55a6 6 0 0 1-6-6 6 6 0 0 1 6-6h25.55a6 6 0 0 1 6 6 6 6 0 0 1-6 6Z"
            class="colorf9757d svgShape" />
        <path fill="#ffffff" d="M274.54 199.93a2.55 2.55 0 1 1 0-5.09h25.55a2.55 2.55 0 0 1 0 5.09Z"
            opacity=".44" class="colorfff svgShape" />
        <path fill="#f9757d"
            d="M349 203.35h-25.6a6 6 0 0 1-6-6 6 6 0 0 1 6-6H349a6 6 0 0 1 6 6 6 6 0 0 1-6 6Z"
            class="colorf9757d svgShape" />
        <path fill="#ffffff" d="M323.4 199.93a2.55 2.55 0 1 1 0-5.09H349a2.55 2.55 0 0 1 0 5.09Z"
            opacity=".44" class="colorfff svgShape" />
        <path fill="#f9757d"
            d="M397.81 203.35h-25.55a6 6 0 0 1-6-6 6 6 0 0 1 6-6h25.55a6 6 0 0 1 6 6 6 6 0 0 1-6 6Z"
            class="colorf9757d svgShape" />
        <path fill="#ffffff" d="M372.26 199.93a2.55 2.55 0 1 1 0-5.09h25.55a2.55 2.55 0 0 1 0 5.09Z"
            opacity=".44" class="colorfff svgShape" />
        <path fill="#f9757d"
            d="M446.67 203.35h-25.55a6 6 0 0 1-6-6 6 6 0 0 1 6-6h25.55a6 6 0 0 1 6 6 6 6 0 0 1-6 6Z"
            class="colorf9757d svgShape" />
        <path fill="#ffffff" d="M421.12 199.93a2.55 2.55 0 1 1 0-5.09h25.55a2.55 2.55 0 0 1 0 5.09Z"
            opacity=".44" class="colorfff svgShape" />
        <path fill="#ffacb4"
            d="M367 102.31c-13.54 7.92-31.64 14.39-47.68 17.3-19.32 3.5-44.2 3.39-60.32-1.35v-16Z"
            class="colorffacb4 svgShape" />
        <path fill="#f9757d"
            d="M462.41 102.31v29.26H259v-9c32.33 9.18 72.85 13.94 109.78-3.81a122 122 0 0 0 25.35-16.45Z"
            class="colorf9757d svgShape" />
        <path fill="#ffffff"
            d="M445.52 109.28h-33a1.69 1.69 0 0 1-1.69-1.69 1.69 1.69 0 0 1 1.69-1.68h33a1.69 1.69 0 0 1 1.69 1.68 1.69 1.69 0 0 1-1.69 1.69ZM445.52 114h-33a1.69 1.69 0 0 1-1.69-1.68 1.69 1.69 0 0 1 1.69-1.69h33a1.69 1.69 0 0 1 1.69 1.69 1.69 1.69 0 0 1-1.69 1.68ZM445.52 118.62h-33a1.69 1.69 0 0 1-1.69-1.68 1.69 1.69 0 0 1 1.69-1.69h33a1.69 1.69 0 0 1 1.69 1.69 1.69 1.69 0 0 1-1.69 1.68ZM445.52 123.29h-33a1.69 1.69 0 0 1-1.69-1.68 1.69 1.69 0 0 1 1.69-1.69h33a1.69 1.69 0 0 1 1.69 1.69 1.69 1.69 0 0 1-1.69 1.68ZM445.52 128h-33a1.69 1.69 0 0 1-1.69-1.69 1.69 1.69 0 0 1 1.69-1.69h33a1.69 1.69 0 0 1 1.69 1.69 1.69 1.69 0 0 1-1.69 1.69Z"
            class="colorfff svgShape" />
        <path fill="#475d7f" d="m260.97 92.61-81.06 14.21 40.34-71.74 81.06-14.21-40.34 71.74z"
            class="color475d7f svgShape" />
        <path fill="#4f6a94"
            d="m303.01 23.27-40.34 71.74-81.07 14.21-1.69-2.4 81.06-14.21 40.34-71.74 1.7 2.4z"
            class="color4f6a94 svgShape" />
        <path fill="#475d7f"
            d="M288.62 62.75a32.89 32.89 0 0 1-7.82 45.74l-11.43 8.1a32.77 32.77 0 0 1-49.23-14.12L262.67 95l21.17-37.64a32.94 32.94 0 0 1 4.78 5.39Z"
            class="color475d7f svgShape" />
        <path
            d="M288.62 62.75a32.74 32.74 0 0 1 5.52 24.49 32 32 0 0 1-1 4.3l-69.43 17.29v-.06a32.81 32.81 0 0 1-3.49-6.3L262.67 95l21.16-37.64a32.53 32.53 0 0 1 4.79 5.39Z"
            style="mix-blend-mode:multiply" fill="#a1b4c0" opacity=".3" class="colora1b4c0 svgShape" />
        <path fill="#fca223"
            d="M224 157a1.53 1.53 0 0 1-1.52-1.53V99.31c0-.55 16.5-35.61 16.74-36.12A1.53 1.53 0 1 1 242 64.5l-16.38 34.31-.08 56.61A1.53 1.53 0 0 1 224 157Z"
            class="colorfca223 svgShape" />
        <path fill="#febc30"
            d="M220.26 160.38c0-3.51 3.56-6.36 3.56-6.36s3.57 2.85 3.57 6.36-1.6 6.37-3.57 6.37-3.56-2.85-3.56-6.37ZM244.31 61.22c.85 1.2-.13 3.34-2.17 4.79s-4.39 1.65-5.24.46.13-3.34 2.18-4.79 4.39-1.68 5.23-.46Z"
            class="colorfebc30 svgShape" />
        <path
            d="M219.47 329.75H29.08a9.08 9.08 0 0 1-9.08-9.06 9.09 9.09 0 0 1 9.06-9.06h190.41a9.08 9.08 0 0 1 9.05 9.06 9.08 9.08 0 0 1-9.05 9.06Z"
            style="mix-blend-mode:multiply" fill="gray" opacity=".2" class="colorgray svgShape" />
        <path fill="#febc30"
            d="M224.2 183.09V307a6.41 6.41 0 0 1-6.41 6.42h-187a6.41 6.41 0 0 1-6.45-6.42V183.09a6.42 6.42 0 0 1 6.42-6.41h187a6.42 6.42 0 0 1 6.44 6.41Z"
            class="colorfebc30 svgShape" />
        <path fill="#fca223" d="M139.91 313.45a15.69 15.69 0 0 1-31.28 0Z"
            class="colorfca223 svgShape" />
        <path fill="#fb8916" d="M134.41 313.45a10.21 10.21 0 0 1-20.28 0Z"
            class="colorfb8916 svgShape" />
        <path fill="#e6e6e6" d="M29.82 307.97V182.15h188.91v125.82H29.82z"
            class="colore6e6e6 svgShape" />
        <path fill="#f7f7f7"
            d="M34 182.15V308a109.68 109.68 0 0 1 90.25 0V182.15a109.68 109.68 0 0 0-90.25 0Z"
            class="colorf7f7f7 svgShape" />
        <path fill="#d8dee2"
            d="M56.9 216.58v3.25a109.74 109.74 0 0 1 59.29 4.17v-3.26a109.64 109.64 0 0 0-59.29-4.16Z"
            class="colord8dee2 svgShape" />
        <path fill="#d8dee2"
            d="M116.19 230.46a109.61 109.61 0 0 0-74.09 0v-3.26a109.73 109.73 0 0 1 74.09 0Z"
            class="colord8dee2 svgShape" />
        <path fill="#d8dee2"
            d="M116.19 236.94a109.73 109.73 0 0 0-74.09 0v-3.26a109.73 109.73 0 0 1 74.09 0ZM89 182.34v3.25a109.53 109.53 0 0 1 27.19 6v-3.26A109.51 109.51 0 0 0 89 182.34ZM89 188.82v3.25a110 110 0 0 1 27.19 6v-3.26A109.51 109.51 0 0 0 89 188.82ZM89 195.3v3.25a110 110 0 0 1 27.19 6v-3.26A109.51 109.51 0 0 0 89 195.3Z"
            class="colord8dee2 svgShape" />
        <path fill="#d8dee2"
            d="M116.19 243.42a109.73 109.73 0 0 0-74.09 0v-3.25a109.61 109.61 0 0 1 74.09 0Z"
            class="colord8dee2 svgShape" />
        <path fill="#d8dee2"
            d="M116.19 249.9a109.73 109.73 0 0 0-74.09 0v-3.25a109.61 109.61 0 0 1 74.09 0Z"
            class="colord8dee2 svgShape" />
        <path fill="#d8dee2"
            d="M56.9 249v3.25a109.74 109.74 0 0 1 59.29 4.15v-3.25A109.55 109.55 0 0 0 56.9 249Z"
            class="colord8dee2 svgShape" />
        <path fill="#d8dee2"
            d="M116.19 262.86a109.73 109.73 0 0 0-74.09 0v-3.25a109.61 109.61 0 0 1 74.09 0Z"
            class="colord8dee2 svgShape" />
        <path fill="#d8dee2"
            d="M116.19 269.34a109.73 109.73 0 0 0-74.09 0v-3.25a109.61 109.61 0 0 1 74.09 0Z"
            class="colord8dee2 svgShape" />
        <path fill="#d8dee2"
            d="M116.19 275.82a109.73 109.73 0 0 0-74.09 0v-3.25a109.73 109.73 0 0 1 74.09 0Z"
            class="colord8dee2 svgShape" />
        <path fill="#d8dee2"
            d="M56.9 274.9v3.26a109.55 109.55 0 0 1 59.29 4.15v-3.26a109.74 109.74 0 0 0-59.29-4.15Z"
            class="colord8dee2 svgShape" />
        <path fill="#d8dee2"
            d="M116.19 288.79a109.61 109.61 0 0 0-74.09 0v-3.26a109.73 109.73 0 0 1 74.09 0Z"
            class="colord8dee2 svgShape" />
        <path fill="#d8dee2"
            d="M116.19 295.27a109.61 109.61 0 0 0-74.09 0V292a109.73 109.73 0 0 1 74.09 0Z"
            class="colord8dee2 svgShape" />
        <path fill="#ffffff"
            d="M214.52 182.15V308a109.53 109.53 0 0 0-90.25 0V182.15a109.88 109.88 0 0 1 90.25 0Z"
            class="colorfff svgShape" />
        <path fill="#d8dee2"
            d="M206.44 292a109.7 109.7 0 0 0-74.08 0v3.26a109.58 109.58 0 0 1 74.08 0Z"
            class="colord8dee2 svgShape" />
        <path fill="#d8dee2"
            d="M206.44 285.53a109.7 109.7 0 0 0-74.08 0v3.26a109.58 109.58 0 0 1 74.08 0Z"
            class="colord8dee2 svgShape" />
        <path fill="#d8dee2"
            d="M206.44 279.05a109.7 109.7 0 0 0-74.08 0v3.26a109.58 109.58 0 0 1 74.08 0Z"
            class="colord8dee2 svgShape" />
        <path fill="#d8dee2"
            d="M147.4 268.39v3.25a109.61 109.61 0 0 1 59 4.18v-3.25a109.61 109.61 0 0 0-59-4.18Z"
            class="colord8dee2 svgShape" />
        <path fill="#d8dee2"
            d="M206.44 266.09a109.58 109.58 0 0 0-74.08 0v3.25a109.7 109.7 0 0 1 74.08 0Z"
            class="colord8dee2 svgShape" />
        <path fill="#d8dee2"
            d="M206.44 259.61a109.58 109.58 0 0 0-74.08 0v3.25a109.7 109.7 0 0 1 74.08 0Z"
            class="colord8dee2 svgShape" />
        <path fill="#d8dee2"
            d="M206.44 253.13a109.58 109.58 0 0 0-74.08 0v3.25a109.7 109.7 0 0 1 74.08 0Z"
            class="colord8dee2 svgShape" />
        <path fill="#d8dee2"
            d="M206.44 246.65a109.58 109.58 0 0 0-74.08 0v3.25a109.7 109.7 0 0 1 74.08 0Z"
            class="colord8dee2 svgShape" />
        <path fill="#d8dee2"
            d="M206.44 240.17a109.58 109.58 0 0 0-74.08 0v3.25a109.7 109.7 0 0 1 74.08 0Z"
            class="colord8dee2 svgShape" />
        <path fill="#d8dee2"
            d="M147.4 229.5v3.26a109.61 109.61 0 0 1 59 4.18v-3.26a109.71 109.71 0 0 0-59-4.18Z"
            class="colord8dee2 svgShape" />
        <path fill="#d8dee2"
            d="M206.44 227.2a109.7 109.7 0 0 0-74.08 0v3.26a109.58 109.58 0 0 1 74.08 0Z"
            class="colord8dee2 svgShape" />
        <path fill="#d8dee2"
            d="M206.44 220.72a109.7 109.7 0 0 0-74.08 0V224a109.58 109.58 0 0 1 74.08 0Z"
            class="colord8dee2 svgShape" />
        <path fill="#d8dee2"
            d="M206.44 214.24a109.7 109.7 0 0 0-74.08 0v3.26a109.58 109.58 0 0 1 74.08 0Z"
            class="colord8dee2 svgShape" />
        <path fill="#d8dee2"
            d="M206.44 207.76a109.7 109.7 0 0 0-74.08 0V211a109.58 109.58 0 0 1 74.08 0Z"
            class="colord8dee2 svgShape" />
        <path fill="#d8dee2"
            d="M147.4 197.1v3.25a109.62 109.62 0 0 1 59 4.19v-3.26a109.61 109.61 0 0 0-59-4.18Z"
            class="colord8dee2 svgShape" />
        <path fill="#d8dee2"
            d="M206.44 194.8a109.7 109.7 0 0 0-74.08 0v3.25a109.7 109.7 0 0 1 74.08 0Z"
            class="colord8dee2 svgShape" />
        <path fill="#d8dee2"
            d="M206.44 188.32a109.7 109.7 0 0 0-74.08 0v3.25a109.7 109.7 0 0 1 74.08 0ZM66.88 182.55a110.22 110.22 0 0 0-24.78 5.77v24.83a110.17 110.17 0 0 1 24.78-5.75Z"
            class="colord8dee2 svgShape" />
        <path d="M176.32 172.61v103.22l-2.89-3.93-2.9 3.93V172.45c1.93 0 3.86.06 5.79.16Z"
            style="mix-blend-mode:multiply" fill="gray" opacity=".2" class="colorgray svgShape" />
        <path fill="#f9757d"
            d="M175.18 172.61v103.22l-2.89-3.93-2.9 3.93V172.45c1.93 0 3.86.06 5.79.16Z"
            class="colorf9757d svgShape" />
        <rect width="93.02" height="7.47" x="347.52" y="371.67" rx="3.2"
            style="mix-blend-mode:multiply" fill="#999999" opacity=".2" class="color999 svgShape" />
        <rect width="14.8" height="61.19" x="364.06" y="316.46" fill="#20ccfa" rx="2.65"
            transform="rotate(31.69 371.49 347.104)" class="color20ccfa svgShape" />
        <rect width="8.75" height="12.82" x="376.81" y="324.9" fill="#0d6ede" rx="1.51"
            transform="rotate(31.69 381.222 331.36)" class="color0d6ede svgShape" />
        <path fill="#0d6ede"
            d="M379.79 343.18 371.4 338a1 1 0 0 1-.32-1.33 1 1 0 0 1 1.33-.31l8.39 5.18a1 1 0 0 1 .32 1.33 1 1 0 0 1-1.33.31ZM378.24 345.69l-8.39-5.18a1 1 0 0 1-.32-1.33 1 1 0 0 1 1.33-.31l8.4 5.18a1 1 0 0 1 .31 1.33 1 1 0 0 1-1.33.31ZM376.7 348.2l-8.4-5.2a1 1 0 0 1-.31-1.32 1 1 0 0 1 1.32-.31l8.4 5.18a1 1 0 0 1 .31 1.33 1 1 0 0 1-1.32.32ZM361.4 368.56l-4.4-2.75a.51.51 0 0 1-.17-.7.51.51 0 0 1 .7-.17l4.46 2.75a.51.51 0 0 1 .16.7.51.51 0 0 1-.75.17ZM360.58 369.89l-4.46-2.75a.5.5 0 0 1-.16-.7.51.51 0 0 1 .7-.17l4.46 2.75a.53.53 0 0 1 .16.71.5.5 0 0 1-.7.16ZM359.76 371.22l-4.46-2.75a.5.5 0 0 1-.16-.7.51.51 0 0 1 .7-.17l4.45 2.75a.52.52 0 0 1 .17.71.5.5 0 0 1-.7.16Z"
            class="color0d6ede svgShape" />
        <path fill="#f9757d"
            d="M407.5 312.38v60.16a3.17 3.17 0 0 1-3 3.3h-8.76a3.17 3.17 0 0 1-3-3.3v-60.16a3.16 3.16 0 0 1 3-3.29h8.76a3.16 3.16 0 0 1 3 3.29Z"
            class="colorf9757d svgShape" />
        <path fill="#fed377"
            d="M400.1 329.27a4.38 4.38 0 0 1-4.38-4.38v-5.22a4.38 4.38 0 0 1 4.38-4.38 4.38 4.38 0 0 1 4.38 4.38v5.22a4.38 4.38 0 0 1-4.38 4.38ZM392.7 367.08h14.8v1.12h-14.8zM392.7 368.78h14.8v1.11h-14.8zM392.7 370.49h14.8v1.12h-14.8zM392.7 331.93h14.8v4.27h-14.8zM392.7 338.86h14.8v4.26h-14.8z"
            class="colorfed377 svgShape" />
        <rect width="8.75" height="55.52" x="428.26" y="320.32" fill="#20ccfa" rx="3.02"
            class="color20ccfa svgShape" />
        <path fill="#ffffff"
            d="M432.64 338.83a2.59 2.59 0 0 1-2.59-2.59v-7.64a2.59 2.59 0 0 1 2.59-2.59 2.59 2.59 0 0 1 2.59 2.59v7.64a2.59 2.59 0 0 1-2.59 2.59ZM428.26 342.32h8.75v1.81h-8.75zM428.26 345.58h8.75v1.81h-8.75zM428.26 348.84h8.75v1.81h-8.75zM428.26 364.44h8.75v1.81h-8.75zM428.26 367.7h8.75v1.81h-8.75z"
            class="colorfff svgShape" />
        <rect width="20.76" height="61.2" x="407.5" y="314.64" fill="#b980e0" rx="3.02"
            class="colorb980e0 svgShape" />
        <path fill="#dbbdef"
            d="M407.5 362.93h20.76v1.02H407.5zM407.5 364.49h20.76v1.02H407.5zM407.5 366.05h20.76v1.02H407.5z"
            class="colordbbdef svgShape" />
        <rect width="14.26" height="2.69" x="410.75" y="337.19" fill="#dbbdef" rx="1.34"
            class="colordbbdef svgShape" />
        <path fill="#dbbdef"
            d="M425 342.9a1.34 1.34 0 0 1-1.34 1.34h-11.57a1.34 1.34 0 0 1-1.34-1.34 1.34 1.34 0 0 1 1.34-1.34h11.58a1.34 1.34 0 0 1 1.33 1.34ZM417.88 319.61a7.13 7.13 0 1 0 7.13 7.13 7.13 7.13 0 0 0-7.13-7.13Zm0 11.29a4.16 4.16 0 1 1 4.16-4.16 4.16 4.16 0 0 1-4.16 4.16Z"
            class="colordbbdef svgShape" />
        <path fill="#db9565"
            d="M496.19 187.32c-10.59 5.73-35.78-6.91-35.78-6.91-3 5.28-2.55 7.71-2.55 7.71C476 199.67 487 200 487 200Z"
            class="colordb9565 svgShape" />
        <path fill="#ffb497"
            d="M460.41 180.41 459 179a69.25 69.25 0 0 0 0-10.33 20 20 0 0 0-1.18 1.84 16.3 16.3 0 0 1-1.35 4c-2.75-.8-6.21-2-6.21-2l-.8-.21-.56.44 4.24 3c-1.61-.6-5.61-2.83-5.61-2.83l-.9.44 4.95 3.53-.34.37-4.69-3-.25.9 4.17 3.84-3.17-1.29-.47.31c5.62 5.32 6.7 5.65 6.7 5.65h1.91l2.79 2.2Z"
            class="colorffb497 svgShape" />
        <path fill="#ffa083" d="M509.71 178.07v6.7c-5.9 5-10 4.59-10 4.59v-8.26Z"
            class="colorffa083 svgShape" />
        <path fill="#eca26d"
            d="M509.71 184.77c5.58 6 12.92 12.17 12.92 12.17-9.64 18.6-14.75 51.43-14.75 51.43-14.4.46-22.67 0-22.67 0 .23-24.57 0-48.91 0-48.91l5.28-8.72 8-4.82h2.87Z"
            class="coloreca26d svgShape" />
        <path d="M491.46 248.54c-4.07 0-6.25-.17-6.25-.17.23-24.57 0-48.91 0-48.91l8.09 33.24Z"
            opacity=".1" fill="#000000" class="color000 svgShape" />
        <path fill="#eca26d"
            d="M522.63 196.94c2.53.46 4.37 4.82 4.37 4.82l3 33.06-16.93 28.47-6.56-6.64 12.93-23.42-6.39-28.23c2.78-10.91 9.58-8.06 9.58-8.06Z"
            class="coloreca26d svgShape" />
        <path fill="#665658"
            d="m507.88 248.37 5.17 14.92 1.09 29.39 5.28 16.53-3.42 40.41-9.39-1.38c2.07-25.48-5.51-49.25-5.51-49.25l-11.94-34.32v-16.1Z"
            class="color665658 svgShape" />
        <path fill="#544647"
            d="m485.21 346.64 8.96.91 5.05-41.1-7.67-57.9-6.34-.18-3.44 24.11 3.44 74.16z"
            class="color544647 svgShape" />
        <path fill="#393646"
            d="M506.56 348.24c-2.64 4.13-10.79 10.91-10.79 10.91 1.27 2.18 5.05 3.78 5.05 3.78 10.91-2.52 12-3.47 12-3.47l-.2-1.46.85-.24.41 1.5a9.8 9.8 0 0 0 3.2-.9 41.08 41.08 0 0 0-1.09-9.57ZM494.17 347.55c2.29 3.33.45 8.79.45 8.79h-5.51v-1.5l-1.37.12-.58 1.38c-9.87 1.49-15.61.17-15.61.17l-1.38-2.3 1.68-2.28a21.68 21.68 0 0 0 6.82-2.2 27.88 27.88 0 0 1 6.45-3.61Z"
            class="color393646 svgShape" />
        <path fill="#ffb497"
            d="M493.59 165.37v5.74l1 1.95-.51 1.72.51 5.28 3.91 5.86h2.87a50.08 50.08 0 0 0 8.84-8.5l-.58-5.85a21.85 21.85 0 0 1-2.75-6.89 6.55 6.55 0 0 0-7.35-2.75ZM509.71 172.05a2.45 2.45 0 0 1 2-1.51c1.72.34 1.26 2.41 1.26 2.41a7.53 7.53 0 0 1-2.75 3.79l-.15-.82Z"
            class="colorffb497 svgShape" />
        <path fill="#393646"
            d="M503.69 157.33h3.1c5.17 2.19 7.66 7.71 7.66 7.71 1 3.22-4.21 12.38-4.21 12.38l-8.33-14-.68-3.2Z"
            class="color393646 svgShape" />
        <path fill="#393646"
            d="m501.91 163.42.57-6.09a20.69 20.69 0 0 0-7.05.58 13.53 13.53 0 0 0-4.09 4.76c.34 4.62 1.07 8.81 1.07 8.81Z"
            class="color393646 svgShape" />
        <path fill="#5a848e" d="M502.48 171.51v1.26l2.59-.34a2.91 2.91 0 0 0-2.59-.92Z"
            class="color5a848e svgShape" />
        <path fill="#4e4e4e"
            d="M501.23 170.13c.32 0 .65 0 1-.08a8.55 8.55 0 0 1 1-.12l.93-.05a6.81 6.81 0 0 1 .92.05l-.09-.05a14.56 14.56 0 0 0 1.56 1.23 13.36 13.36 0 0 0-1.28-1.52h-.06a9.33 9.33 0 0 0-1-.11l-1 .11a4.2 4.2 0 0 0-.94.25 9.19 9.19 0 0 0-1.04.29Z"
            class="color4e4e4e svgShape" />
        <path fill="#5a848e" d="M497.18 171.68v1.09a13.36 13.36 0 0 1-2-.17 2.56 2.56 0 0 1 2-.92Z"
            class="color5a848e svgShape" />
        <path fill="#4e4e4e"
            d="M497.81 170.54a4.85 4.85 0 0 0-.64-.4 2.28 2.28 0 0 0-.7-.28 6.74 6.74 0 0 0-.75-.17 6.62 6.62 0 0 0-.77 0h-.09a7.89 7.89 0 0 0-.85 1.06 8.48 8.48 0 0 0 1.12-.76l-.14.05c.23 0 .47.06.71.09s.46.08.7.11a4.74 4.74 0 0 1 .71.15c.2.07.45.11.7.15Z"
            class="color4e4e4e svgShape" />
        <path fill="#ffffff"
            d="M497.64 179.87c0 .74 1 1.3 2.22 1.24s2.11-.71 2.07-1.46-1-.46-2.17-.4-2.15-.13-2.12.62Z"
            class="colorfff svgShape" />
        <path fill="#393646" d="M484.95 247.55h23.27v1.26h-23.27z" class="color393646 svgShape" />
        <path fill="#ffb497"
            d="m295.17 286.17-3.07-.3-4.18 1.57-.6.35s-1.42 2.89 2.72 3.54a6.8 6.8 0 0 1 .92.1 4.71 4.71 0 0 0 5.25-1.79Z"
            class="colorffb497 svgShape" />
        <path fill="#ffb497"
            d="M295 290.37c-1.8.27-3.1.81-2.9 1.21s1.64.95 3.44.67 3.44-.69 3.24-1.09l-2.66-.12ZM292 285.93a9.7 9.7 0 0 1 4-.18l2.27.66-.85.17a7.47 7.47 0 0 0-3.51 0Z"
            class="colorffb497 svgShape" />
        <path fill="#ffb497"
            d="M293.32 286.8a10.28 10.28 0 0 1 4.09-.19l3.14.76-1.15.38a9.74 9.74 0 0 0-4.07-.09Z"
            class="colorffb497 svgShape" />
        <path fill="#ffb497"
            d="M294.64 287.91a10 10 0 0 1 3.72-.23l3.43.73-.91.38a14.11 14.11 0 0 0-5.22.14Z"
            class="colorffb497 svgShape" />
        <path fill="#ffb497"
            d="M294.44 289a10.13 10.13 0 0 1 4.06-.19l3.06.64-.92.39c-2.17-.53-6.65 0-6.65 0Z"
            class="colorffb497 svgShape" />
        <path fill="#d33c4f"
            d="M314.57 283.17v-3.74a3.38 3.38 0 0 1 3.57-3.13h.93a3.38 3.38 0 0 1 3.57 3.13v3.74a3.37 3.37 0 0 1-3.57 3.13h-.93a3.37 3.37 0 0 1-3.57-3.13Zm3.57-5.2a1.75 1.75 0 0 0-1.9 1.46v3.74a1.72 1.72 0 0 0 1.9 1.46h.93a1.72 1.72 0 0 0 1.9-1.46v-3.74a1.75 1.75 0 0 0-1.9-1.46Z"
            class="colord33c4f svgShape" />
        <path fill="#d33c4f"
            d="M308.23 289.31h8.62l2.18-14.27h-12.98l2.18 14.27zM319 275s-1.15-1.43-6.49-1.44-6.49 1.44-6.49 1.44Z"
            class="colord33c4f svgShape" />
        <path fill="#845c52"
            d="M306.48 274.93c0 .44 2.71.79 6.06.79s6.06-.35 6.06-.79-2.71-.79-6.06-.79-6.06.36-6.06.79Z"
            class="color845c52 svgShape" />
        <path fill="#ffe0cf"
            d="M312 273.38a5.68 5.68 0 0 0 1.88-1.25 3.24 3.24 0 0 0 1-2.27 3.57 3.57 0 0 0-1.06-2.38 2.61 2.61 0 0 0-.24-.22l-.15-.13-.11-.08-.35-.29a1.9 1.9 0 0 1-.46-.59.58.58 0 0 1 0-.48 1.54 1.54 0 0 1 .39-.59 2.84 2.84 0 0 1 .68-.53 2.29 2.29 0 0 0 1.05-1 1.69 1.69 0 0 0-.09-1.53 3.72 3.72 0 0 0-.81-.93 6.73 6.73 0 0 0-2-1.11 13.93 13.93 0 0 1 1.4 1.63c.41.53.61 1.21.38 1.38a1.64 1.64 0 0 1-.56.37 4.3 4.3 0 0 0-1.1.68 3 3 0 0 0-.84 1.17 2.19 2.19 0 0 0 .08 1.63 3.2 3.2 0 0 0 .86 1.09 6.13 6.13 0 0 0 .51.38l.11.08h.06l.17.13a2.56 2.56 0 0 1 .87 1.4 2.63 2.63 0 0 1-.39 1.73 10 10 0 0 1-1.28 1.71Z"
            opacity=".6" class="colorffe0cf svgShape" />
        <path fill="#ffd2bb"
            d="M313.26 269.74a6 6 0 0 0 1.89-1.24 3.32 3.32 0 0 0 1-2.28 3.53 3.53 0 0 0-1.06-2.37 1.75 1.75 0 0 0-.24-.23l-.15-.13-.11-.08a3.17 3.17 0 0 1-.35-.29 1.79 1.79 0 0 1-.46-.59.56.56 0 0 1 0-.47 1.56 1.56 0 0 1 .39-.6 2.84 2.84 0 0 1 .68-.53 2.26 2.26 0 0 0 1.05-1 1.68 1.68 0 0 0-.09-1.54 3.72 3.72 0 0 0-.81-.93 6.57 6.57 0 0 0-2-1.1 13.08 13.08 0 0 1 1.4 1.62c.41.54.61 1.22.38 1.38a1.54 1.54 0 0 1-.55.37 4.19 4.19 0 0 0-1.11.68 3 3 0 0 0-.84 1.17 2.19 2.19 0 0 0 .08 1.63 3.35 3.35 0 0 0 .86 1.1 6 6 0 0 0 .51.37l.11.08h.06l.17.13a2.27 2.27 0 0 1 .48 3.14 9.83 9.83 0 0 1-1.29 1.71Z"
            opacity=".6" class="colorffd2bb svgShape" />
        <path fill="#565656"
            d="M242.49 356.36a2 2 0 0 0 2 2h32a2 2 0 0 0 2-2 2 2 0 0 0-2-2h-32a2 2 0 0 0-2 2Z"
            class="color565656 svgShape" />
        <path fill="#f2a68f"
            d="m272.72 305.78 4 3-4 8.51-1.25 34.77 4.16-1.11 13.58-43.58-1.76-6.68-7.68-3.15c-5.16-.47-7.05 8.24-7.05 8.24Z"
            class="colorf2a68f svgShape" />
        <path fill="#447884"
            d="M275.63 351c2.92 5.06 14.26 12.86 14.26 12.86-1.8 3.85-7.4 4.05-7.4 4.05a33.84 33.84 0 0 0-10.49-5.09c-2.5-1.23-2.62-5.15-2.18-8.57.43-3.05 5.81-3.25 5.81-3.25Z"
            class="color447884 svgShape" />
        <path fill="#db8f6e" d="M313.25 291.28h3.78v69.97h-3.78z" class="colordb8f6e svgShape" />
        <path fill="#565656"
            d="M233.39 311.4a2.91 2.91 0 0 0 3 2.79h40.17a2.91 2.91 0 0 0 3-2.79 2.9 2.9 0 0 0-3-2.79H236.4a2.9 2.9 0 0 0-3 2.79Z"
            class="color565656 svgShape" />
        <path fill="#565656"
            d="M254.8 354.87a1.72 1.72 0 0 0 1.68 1.76 1.73 1.73 0 0 0 1.68-1.76v-41.12a1.73 1.73 0 0 0-1.68-1.77 1.72 1.72 0 0 0-1.68 1.77Z"
            class="color565656 svgShape" />
        <path fill="#ec6747"
            d="m245.1 211.21.62-3.64L253 205l8.16 2.91c6.67 4.7 9.25 29.94 9.25 29.94l-17-5.49Z"
            class="colorec6747 svgShape" />
        <path fill="#ffb497"
            d="m266 314.12 4 3-4 8.5.95 24.31 4.53 1 11-35.24-1.76-6.68-7.72-3.1c-5.12-.49-7 8.21-7 8.21Z"
            class="colorffb497 svgShape" />
        <path fill="#7ab8c3"
            d="M241.39 268.91a217.74 217.74 0 0 1-5.93 24.9l4.64 15.05 25.9 5.26c5.48-11.54 20.78-14 20.78-14-5.1-9.72-18.72-12.76-18.72-12.76L266 276.05Z"
            class="color7ab8c3 svgShape" />
        <path fill="#498091"
            d="m266.94 350-3.78 5.46a105.69 105.69 0 0 1-2.45 10.84c2.92 3.14 9.06 3.94 9.06 3.94.28-7.79 1-10.83 1-10.83a41.44 41.44 0 0 0 .66-8.4Z"
            class="color498091 svgShape" />
        <path fill="#ffb497"
            d="m259.82 235.12 12.69 2.04 4.18 29.8 4.29 9.63-8.47-.3-12.69-41.17zM248.12 230.49a54.37 54.37 0 0 1-11 5.47l-8.85 5.68 4.31 31.18 10.81-3.55-2.92-32.2Z"
            class="colorffb497 svgShape" />
        <path fill="#7ab8c3"
            d="m248.37 231.36-10.23 4.73 2.08 40.2 25.77-.24-.75-39.18-5.73-3.38-11.14-2.13z"
            class="color7ab8c3 svgShape" />
        <path d="m238.14 236.09 2.08 40.2 25.77-.24-18.35-14.3-9.5-25.66z" opacity=".1"
            fill="#000000" class="color000 svgShape" />
        <path fill="#ec6747"
            d="M245.53 244.39c-9.48-13.91-10.25-16.92-9.33-27l5.25-7.27 4.57-.3 7.52 28.35Z"
            class="colorec6747 svgShape" />
        <path fill="#f2a68f" d="M248.12 227.65v11.75c3.33 6.88 7.93.47 7.93.47v-5.75Z"
            class="colorf2a68f svgShape" />
        <path fill="#ffb497"
            d="m258.34 236.25-9.11-3.94-3-9c1.24-6.31 5-8.95 5-8.95a11.22 11.22 0 0 1 11.67 3.41l-.57 3.35 1.46 3.67-1.16 6.57-3.3 5.31Z"
            class="colorffb497 svgShape" />
        <path fill="#4e4e4e"
            d="M255.65 222.44a6.72 6.72 0 0 0-.76-.41 4 4 0 0 0-.83-.33 7.84 7.84 0 0 0-1-.24 6.13 6.13 0 0 0-1-.07 4.06 4.06 0 0 0-.9.1 2.86 2.86 0 0 0-.82.31 5.33 5.33 0 0 1 .85-.08h.87a7.07 7.07 0 0 1 1 .12 7.56 7.56 0 0 1 1 .18 8.21 8.21 0 0 1 .85.2c.4.16.74.22.74.22ZM258.34 221.74a5 5 0 0 0 .54-.22 3.25 3.25 0 0 1 .53-.22 2.64 2.64 0 0 1 .6-.2 5.73 5.73 0 0 1 1.17-.23h.57a2 2 0 0 0-.55-.22 2.88 2.88 0 0 0-.61 0 2.76 2.76 0 0 0-.69.11 3.18 3.18 0 0 0-.65.28 2.29 2.29 0 0 0-.5.34 4.23 4.23 0 0 0-.41.36Z"
            class="color4e4e4e svgShape" />
        <path fill="#ffb497" d="m280.98 276.59 10.08 12.15-5.94.2-12.61-12.65 8.47.3z"
            class="colorffb497 svgShape" />
        <path fill="#db8f6e" d="M234.35 291.28h3.78v78.63h-3.78z" class="colordb8f6e svgShape" />
        <path fill="#ffcd84" d="M232.31 291.28h3.78v78.63h-3.78z" class="colorffcd84 svgShape" />
        <path fill="#db8f6e" d="M243.97 291.28h3.78v69.97h-3.78zM322.87 291.28h3.78v78.63h-3.78z"
            class="colordb8f6e svgShape" />
        <path fill="#ffcd84" d="M324.91 291.28h3.78v78.63h-3.78z" class="colorffcd84 svgShape" />
        <path fill="#ffcd84" d="M215.71 288.74h129.77v5.07H215.71z" class="colorffcd84 svgShape" />
        <path fill="#ffb497" d="m232.61 272.82 23.44 16.12h8.16l-22.7-18.79-8.9 2.67z"
            class="colorffb497 svgShape" />
        <path fill="#db8f6e" d="M224.21 292.81h111.98v5.07H224.21z" class="colordb8f6e svgShape" />
        <path fill="#ffffff"
            d="M255.91 230.71a2.77 2.77 0 0 0 2.72 1.85 2.92 2.92 0 0 0 2.36-2.4 20.51 20.51 0 0 0-2.56.13 22 22 0 0 0-2.52.42Z"
            class="colorfff svgShape" />
        <path fill="#544647"
            d="M233.7 273.74a2.78 2.78 0 0 0 2.86 2.69h53.07a2.78 2.78 0 0 0 2.86-2.69v-33.19a2.78 2.78 0 0 0-2.86-2.7h-53.07a2.78 2.78 0 0 0-2.86 2.7Z"
            class="color544647 svgShape" />
        <path fill="#ffffff"
            d="M292.49 273.74v-33.19a2.78 2.78 0 0 0-2.86-2.7h-53.07c-.84 0 19.83 3.63 34.95 13.35 13.16 8.45 20.98 23.23 20.98 22.54Z"
            opacity=".1" class="colorfff svgShape" />
        <path fill="#adadad" d="M261.54 254.12a3.44 3.44 0 1 0 3.44-3.44 3.44 3.44 0 0 0-3.44 3.44Z"
            class="coloradadad svgShape" />
        <path fill="#544647" d="M261.07 265.33h7.8v32.53h-7.8z" class="color544647 svgShape" />
        <path fill="#5a848e"
            d="M254.51 223.42c-1.06-.24-2.72 1-2.72 1a7.62 7.62 0 0 0 2.46.09ZM261.41 222.49a2.71 2.71 0 0 0-2.36 1.3 7.79 7.79 0 0 0 2.32-.31Z"
            class="color5a848e svgShape" />
        <path fill="#ffa083"
            d="M245.54 224.54c-1.27-.72-1.81-.48-1.81-.48-.66 0-.25 1.21-.25 1.21a9.27 9.27 0 0 0 2.85 2.73c.77.32.43-1 .43-1a10.63 10.63 0 0 0-1.22-2.46Z"
            class="colorffa083 svgShape" />
    </g>
</svg>