<svg className="absolute bottom-0 left-0 right-0" xmlns="http://www.w3.org/2000/svg" viewBox="0 0 1440 320">

    <path fill="#1e4a87" fillOpacity="1" d="M0,256L48,261.3C96,267,192,277,288,250.7C384,224,480,160,576,128C672,96,768,96,864,112C960,128,1056,160,1152,170.7C1248,181,1344,171,1392,165.3L1440,160L1440,320L1392,320C1344,320,1248,320,1152,320C1056,320,960,320,864,320C768,320,672,320,576,320C480,320,384,320,288,320C192,320,96,320,48,320L0,320Z">
    <animate attributeName="d" repeatCount="indefinite" dur="12s" values="M0,256L48,261.3C96,267,192,277,288,250.7C384,224,480,160,576,128C672,96,768,96,864,112C960,128,1056,160,1152,170.7C1248,181,1344,171,1392,165.3L1440,160L1440,320L1392,320C1344,320,1248,320,1152,320C1056,320,960,320,864,320C768,320,672,320,576,320C480,320,384,320,288,320C192,320,96,320,48,320L0,320Z;
      M0,96L48,128C96,160,192,224,288,234.7C384,245,480,203,576,149.3C672,96,768,64,864,69.3C960,75,1056,117,1152,138.7C1248,160,1344,160,1392,160L1440,160L1440,320L1392,320C1344,320,1248,320,1152,320C1056,320,960,320,864,320C768,320,672,320,576,320C480,320,384,320,288,320C192,320,96,320,48,320L0,320Z;
      M0,256L48,261.3C96,267,192,277,288,250.7C384,224,480,160,576,128C672,96,768,96,864,112C960,128,1056,160,1152,170.7C1248,181,1344,171,1392,165.3L1440,160L1440,320L1392,320C1344,320,1248,320,1152,320C1056,320,960,320,864,320C768,320,672,320,576,320C480,320,384,320,288,320C192,320,96,320,48,320L0,320Z"
    ></animate>
  </path>
  <path fill="#06367A" fillOpacity="0.7" d="M0,224 C120,203,240,181,360,186.7 C480,192,600,224,720,245.3 C840,267,960,277,1080,250.7 C1200,224,1320,160,1440,96 V320H0Z">
  <animate attributeName="d" repeatCount="indefinite" dur="13s" values="M0,224 C120,203,240,181,360,186.7 C480,192,600,224,720,245.3 C840,267,960,277,1080,250.7 C1200,224,1320,160,1440,96 V320H0Z;
    M0,96 C120,64,240,32,360,69.3 C480,107,600,224,720,245.3 C840,267,960,277,1080,250.7 C1200,224,1320,160,1440,128 V320H0Z;
    M0,224 C120,203,240,181,360,186.7 C480,192,600,224,720,245.3 C840,267,960,277,1080,250.7 C1200,224,1320,160,1440,96 V320H0Z"
  ></animate>
</path>
</svg>
